HIERARCHY
ROOT Hips
{
	OFFSET 0.000000 88.474243 0.000000
	CHANNELS 6 Xposition Yposition Zposition Zrotation Yrotation Xrotation 
	JOINT Hips_Spine
	{
		OFFSET 0.000000 0.000000 0.000000
		CHANNELS 3 Zrotation Yrotation Xrotation
		JOINT Spine
		{
			OFFSET 0.005100 8.711998 -0.691000
			CHANNELS 3 Zrotation Yrotation Xrotation
			JOINT Spine1
			{
				OFFSET -0.009200 8.660301 -1.275000
				CHANNELS 3 Zrotation Yrotation Xrotation
				JOINT Spine2
				{
					OFFSET 0.006300 9.852501 -1.857000
					CHANNELS 3 Zrotation Yrotation Xrotation
					JOINT Spine2_Neck
					{
						OFFSET 0.000000 0.000000 0.000000
						CHANNELS 3 Zrotation Yrotation Xrotation
						JOINT Neck
						{
							OFFSET 0.016300 11.420799 -0.263300
							CHANNELS 3 Zrotation Yrotation Xrotation
							End Site #name: Head
							{
								OFFSET -0.019200 9.262405 2.362500
							}
						}
					}
					JOINT Spine2_LeftShoulder
					{
						OFFSET 0.000000 0.000000 0.000000
						CHANNELS 3 Zrotation Yrotation Xrotation
						JOINT LeftShoulder
						{
							OFFSET 5.616900 6.732201 -0.345700
							CHANNELS 3 Zrotation Yrotation Xrotation
							JOINT LeftArm
							{
								OFFSET 10.664888 -0.183372 -2.440700
								CHANNELS 3 Zrotation Yrotation Xrotation
								JOINT LeftForeArm
								{
									OFFSET 27.459126 0.000000 0.000000
									CHANNELS 3 Zrotation Yrotation Xrotation
									End Site #name: LeftHand
									{
										OFFSET 21.306858 0.000000 0.000000
									}
								}
							}
						}
					}
					JOINT Spine2_RightShoulder
					{
						OFFSET 0.000000 0.000000 0.000000
						CHANNELS 3 Zrotation Yrotation Xrotation
						JOINT RightShoulder
						{
							OFFSET -5.580300 6.737503 -0.344400
							CHANNELS 3 Zrotation Yrotation Xrotation
							JOINT RightArm
							{
								OFFSET -10.679335 -0.188484 -2.383900
								CHANNELS 3 Zrotation Yrotation Xrotation
								JOINT RightForeArm
								{
									OFFSET -27.503529 0.000000 0.000000
									CHANNELS 3 Zrotation Yrotation Xrotation
									End Site #name: RightHand
									{
										OFFSET -21.306808 0.000000 0.000000
									}
								}
							}
						}
					}
				}
			}
		}
	}
	JOINT Hips_LeftUpLeg
	{
		OFFSET 0.000000 0.000000 0.000000
		CHANNELS 3 Zrotation Yrotation Xrotation
		JOINT LeftUpLeg
		{
			OFFSET 6.857700 -6.739601 0.312100
			CHANNELS 3 Zrotation Yrotation Xrotation
			JOINT LeftLeg
			{
				OFFSET -0.367590 -34.731552 -4.572400
				CHANNELS 3 Zrotation Yrotation Xrotation
				End Site #name: LeftFoot
				{
					OFFSET 0.367590 -34.656704 -6.067400
				}
			}
		}
	}
	JOINT Hips_RightUpLeg
	{
		OFFSET 0.000000 0.000000 0.000000
		CHANNELS 3 Zrotation Yrotation Xrotation
		JOINT RightUpLeg
		{
			OFFSET -6.876100 -6.733299 0.301000
			CHANNELS 3 Zrotation Yrotation Xrotation
			JOINT RightLeg
			{
				OFFSET 0.347353 -34.795158 -4.515900
				CHANNELS 3 Zrotation Yrotation Xrotation
				End Site #name: RightFoot
				{
					OFFSET -0.347353 -34.589367 -6.070300
				}
			}
		}
	}
}
MOTION
Frames: 9
Frame Time: 0.041667
-0.251455 -0.121447 -1.142223 -1.461286 -2.198689 -0.945893 0.000000 -0.000000 0.000000 -0.984034 0.814878 5.360638 -1.251549 0.006207 2.813950 0.000000 0.000000 0.000000 -1.425660 -0.384099 1.700282 4.114474 -3.302602 9.604606 -1.359820 -0.367892 2.868259 -3.805718 6.763130 -0.688971 -71.589002 -5.321633 31.023556 0.128154 -6.410677 0.222598 -1.708633 -0.274734 2.444598 8.320167 -3.562139 0.330481 48.621292 36.023850 -6.526162 179.338198 42.789131 -179.785375 0.000000 -0.000000 -0.000000 1.477450 12.225655 -17.404163 2.926026 2.411247 18.591852 0.000000 -0.000000 0.000000 -1.025260 -10.279108 -12.542116 -0.057900 -1.634401 17.824377 
-0.295416 -0.127452 -1.171828 -1.402698 -2.205697 -0.951665 0.000000 -0.000000 0.000000 -0.965556 0.799322 5.319549 -1.223105 -0.008119 2.820128 0.000000 0.000000 0.000000 -1.387011 -0.399661 1.721277 4.050018 -3.260279 9.598341 -1.328170 -0.386175 2.882083 -3.856421 6.703306 -0.683495 -71.711700 -5.550928 30.763674 0.129536 -6.155553 0.220468 -1.671960 -0.299455 2.462312 8.623049 -3.598467 0.320090 49.191204 35.678521 -5.782876 179.346981 43.093903 -179.786856 0.000000 -0.000000 -0.000000 1.484279 12.236486 -17.367944 2.901919 2.359527 18.533256 0.000000 -0.000000 0.000000 -1.021029 -10.277391 -12.524791 -0.054956 -1.642112 17.803504 
-0.333524 -0.133520 -1.201673 -1.347035 -2.212731 -0.958940 0.000000 -0.000000 0.000000 -0.950070 0.782885 5.268057 -1.191607 -0.017570 2.821876 0.000000 0.000000 0.000000 -1.346502 -0.409842 1.740109 3.976253 -3.212192 9.593483 -1.293907 -0.399774 2.894780 -3.913430 6.640775 -0.679333 -71.825133 -5.780760 30.494917 0.129120 -5.890915 0.218593 -1.631752 -0.317949 2.475441 8.911240 -3.628750 0.308772 49.784065 35.300181 -4.996280 179.357729 43.401606 -179.787545 0.000000 -0.000000 -0.000000 1.490850 12.245694 -17.336675 2.879938 2.314844 18.485453 0.000000 -0.000000 0.000000 -1.018188 -10.271903 -12.504760 -0.053754 -1.650223 17.777167 
-0.365593 -0.139634 -1.231679 -1.295455 -2.217071 -0.964793 0.000000 -0.000000 0.000000 -0.933849 0.770114 5.207664 -1.157683 -0.021798 2.820994 0.000000 0.000000 0.000000 -1.302453 -0.414463 1.757085 3.896602 -3.161844 9.582225 -1.256402 -0.406550 2.905443 -3.978972 6.569080 -0.673854 -71.942516 -5.998493 30.207797 0.129658 -5.618085 0.214524 -1.588482 -0.330573 2.488998 9.156309 -3.645817 0.293855 50.384483 34.898258 -4.185831 179.370268 43.714822 -179.787830 0.000000 -0.000000 -0.000000 1.495247 12.256220 -17.302979 2.863599 2.279277 18.429562 0.000000 -0.000000 0.000000 -1.015844 -10.264404 -12.489217 -0.052967 -1.656543 17.757058 
-0.391444 -0.145730 -1.261881 -1.247297 -2.221124 -0.969705 0.000000 -0.000000 0.000000 -0.916469 0.756175 5.143078 -1.120401 -0.020658 2.816750 0.000000 0.000000 0.000000 -1.255939 -0.417658 1.775724 3.811552 -3.107634 9.570860 -1.216449 -0.410918 2.915718 -4.045752 6.496594 -0.667049 -72.055464 -6.233468 29.912963 0.128365 -5.349779 0.211440 -1.545010 -0.341327 2.501504 9.414662 -3.670829 0.277183 50.997086 34.438326 -3.313224 179.386479 44.079313 -179.785051 0.000000 -0.000000 -0.000000 1.498782 12.266796 -17.273259 2.849646 2.252716 18.374885 0.000000 -0.000000 0.000000 -1.016030 -10.258771 -12.474135 -0.052631 -1.663898 17.737250 
-0.411356 -0.151823 -1.292156 -1.202601 -2.224844 -0.975556 0.000000 -0.000000 0.000000 -0.897505 0.741227 5.079046 -1.081029 -0.019685 2.813254 0.000000 0.000000 0.000000 -1.207727 -0.420224 1.797008 3.721617 -3.049638 9.554271 -1.174564 -0.412187 2.925946 -4.107383 6.420919 -0.661186 -72.159708 -6.458322 29.593754 0.127603 -5.087942 0.208508 -1.500167 -0.351325 2.513975 9.700750 -3.708488 0.255670 51.655589 33.886205 -2.349798 179.403201 44.504096 -179.782659 0.000000 -0.000000 -0.000000 1.501945 12.275623 -17.249662 2.838605 2.233793 18.331407 0.000000 -0.000000 0.000000 -1.018186 -10.251321 -12.456235 -0.052441 -1.671376 17.710739 
-0.425707 -0.157781 -1.322494 -1.161520 -2.225596 -0.982747 0.000000 -0.000000 0.000000 -0.883942 0.729419 5.005612 -1.040012 -0.018629 2.808448 0.000000 0.000000 0.000000 -1.157822 -0.422533 1.819310 3.626312 -2.985766 9.535895 -1.131342 -0.411868 2.933979 -4.171405 6.341119 -0.654230 -72.280338 -6.692813 29.262141 0.126992 -4.819142 0.206146 -1.454444 -0.359269 2.524580 10.004991 -3.755948 0.229386 52.432088 33.221467 -1.192556 179.422314 44.974932 -179.777897 0.000000 -0.000000 -0.000000 1.500297 12.286494 -17.225399 2.834166 2.226120 18.285649 0.000000 -0.000000 0.000000 -1.023776 -10.246249 -12.437107 -0.050967 -1.677984 17.689632 
-0.434785 -0.163608 -1.352915 -1.124060 -2.226734 -0.989822 0.000000 -0.000000 0.000000 -0.869350 0.718112 4.934209 -0.997558 -0.017102 2.803406 0.000000 0.000000 0.000000 -1.105410 -0.423845 1.842040 3.527330 -2.917556 9.510875 -1.086181 -0.412166 2.940311 -4.235052 6.252296 -0.645182 -72.401420 -6.922811 28.972884 0.125213 -4.514965 0.202098 -1.407686 -0.365407 2.536318 10.332626 -3.807683 0.196295 53.278718 32.492817 0.013701 179.446032 45.553677 -179.771426 0.000000 -0.000000 -0.000000 1.500226 12.291581 -17.200453 2.832023 2.228428 18.243123 0.000000 -0.000000 0.000000 -1.032029 -10.240151 -12.418766 -0.051138 -1.682659 17.668089 
-0.438873 -0.169288 -1.383389 -1.090520 -2.228233 -0.997270 0.000000 -0.000000 0.000000 -0.853128 0.705429 4.866294 -0.953274 -0.015872 2.798868 0.000000 0.000000 0.000000 -1.051460 -0.426236 1.865860 3.425666 -2.848212 9.483471 -1.037940 -0.412425 2.949552 -4.297439 6.166902 -0.636599 -72.520456 -7.185464 28.651879 0.123329 -4.212603 0.198249 -1.357725 -0.364034 2.550753 10.637488 -3.822421 0.168945 54.135924 31.733152 1.201200 179.473485 46.171329 -179.763380 0.000000 -0.000000 -0.000000 1.498576 12.299853 -17.174770 2.834028 2.240505 18.198291 0.000000 -0.000000 0.000000 -1.042014 -10.228973 -12.402866 -0.049670 -1.686126 17.649019 
